<svg width="60" height="60" viewBox="0 0 60 60" fill="none" xmlns="http://www.w3.org/2000/svg">
<g clip-path="url(#clip0_66_307)">
<path d="M30.0137 16.5234C21.4958 16.5234 14.6253 22.5352 14.6253 29.9883C14.6253 37.4414 21.4958 43.4531 30.0137 43.4531C38.5315 43.4531 45.4021 37.4414 45.4021 29.9883C45.4021 22.5352 38.5315 16.5234 30.0137 16.5234ZM30.0137 38.7422C24.5092 38.7422 20.0092 34.8164 20.0092 29.9883C20.0092 25.1602 24.4958 21.2344 30.0137 21.2344C35.5315 21.2344 40.0181 25.1602 40.0181 29.9883C40.0181 34.8164 35.5181 38.7422 30.0137 38.7422ZM49.6208 15.9727C49.6208 17.7187 48.0137 19.1133 46.0315 19.1133C44.036 19.1133 42.4422 17.707 42.4422 15.9727C42.4422 14.2383 44.0494 12.832 46.0315 12.832C48.0137 12.832 49.6208 14.2383 49.6208 15.9727ZM59.8128 19.1602C59.5851 14.9531 58.4869 11.2266 54.9646 8.15625C51.4556 5.08594 47.1967 4.125 42.3887 3.91406C37.4333 3.66797 22.5806 3.66797 17.6253 3.91406C12.8306 4.11328 8.57171 5.07422 5.04939 8.14453C1.52706 11.2148 0.442243 14.9414 0.201172 19.1484C-0.0800781 23.4844 -0.0800781 36.4805 0.201172 40.8164C0.42885 45.0234 1.52706 48.75 5.04939 51.8203C8.57171 54.8906 12.8172 55.8516 17.6253 56.0625C22.5806 56.3086 37.4333 56.3086 42.3887 56.0625C47.1967 55.8633 51.4556 54.9023 54.9646 51.8203C58.4735 48.75 59.5717 45.0234 59.8128 40.8164C60.094 36.4805 60.094 23.4961 59.8128 19.1602ZM53.411 45.4687C52.3663 47.7656 50.344 49.5352 47.7056 50.4609C43.7547 51.832 34.3797 51.5156 30.0137 51.5156C25.6476 51.5156 16.2592 51.8203 12.3217 50.4609C9.69671 49.5469 7.67439 47.7773 6.61635 45.4687C5.04939 42.0117 5.41099 33.8086 5.41099 29.9883C5.41099 26.168 5.06278 17.9531 6.61635 14.5078C7.66099 12.2109 9.68331 10.4414 12.3217 9.51562C16.2726 8.14453 25.6476 8.46094 30.0137 8.46094C34.3797 8.46094 43.7681 8.15625 47.7056 9.51562C50.3306 10.4297 52.353 12.1992 53.411 14.5078C54.978 17.9648 54.6163 26.168 54.6163 29.9883C54.6163 33.8086 54.978 42.0234 53.411 45.4687Z" fill="#66FCF1"/>
</g>
<defs>
<clipPath id="clip0_66_307">
<rect width="60" height="60" fill="white"/>
</clipPath>
</defs>
</svg>
