<svg width="30" height="30" viewBox="0 0 30 30" fill="none" xmlns="http://www.w3.org/2000/svg">
<g clip-path="url(#clip0_66_233)">
<path d="M8.91211 2.23827C9.49219 2.75976 9.53906 3.64452 9.01758 4.2246L4.79883 8.9121C4.54102 9.19921 4.17773 9.36913 3.79102 9.37499C3.4043 9.38085 3.03516 9.23437 2.75977 8.96483L0.410156 6.62108C-0.134766 6.0703 -0.134766 5.17968 0.410156 4.6289C0.955078 4.07812 1.85156 4.07812 2.39648 4.6289L3.69141 5.92382L6.91992 2.33788C7.44141 1.7578 8.32617 1.71093 8.90625 2.23241L8.91211 2.23827ZM8.91211 11.6133C9.49219 12.1348 9.53906 13.0195 9.01758 13.5996L4.79883 18.2871C4.54102 18.5742 4.17773 18.7441 3.79102 18.75C3.4043 18.7558 3.03516 18.6094 2.75977 18.3398L0.410156 15.9961C-0.140625 15.4453 -0.140625 14.5547 0.410156 14.0098C0.960937 13.4648 1.85156 13.459 2.39648 14.0098L3.69141 15.3047L6.91992 11.7187C7.44141 11.1387 8.32617 11.0918 8.90625 11.6133H8.91211ZM13.125 5.62499C13.125 4.58788 13.9629 3.74999 15 3.74999H28.125C29.1621 3.74999 30 4.58788 30 5.62499C30 6.6621 29.1621 7.49999 28.125 7.49999H15C13.9629 7.49999 13.125 6.6621 13.125 5.62499ZM13.125 15C13.125 13.9629 13.9629 13.125 15 13.125H28.125C29.1621 13.125 30 13.9629 30 15C30 16.0371 29.1621 16.875 28.125 16.875H15C13.9629 16.875 13.125 16.0371 13.125 15ZM9.375 24.375C9.375 23.3379 10.2129 22.5 11.25 22.5H28.125C29.1621 22.5 30 23.3379 30 24.375C30 25.4121 29.1621 26.25 28.125 26.25H11.25C10.2129 26.25 9.375 25.4121 9.375 24.375ZM2.8125 21.5625C3.55842 21.5625 4.27379 21.8588 4.80124 22.3863C5.32868 22.9137 5.625 23.6291 5.625 24.375C5.625 25.1209 5.32868 25.8363 4.80124 26.3637C4.27379 26.8912 3.55842 27.1875 2.8125 27.1875C2.06658 27.1875 1.35121 26.8912 0.823762 26.3637C0.296316 25.8363 -1.67638e-08 25.1209 -1.67638e-08 24.375C-1.67638e-08 23.6291 0.296316 22.9137 0.823762 22.3863C1.35121 21.8588 2.06658 21.5625 2.8125 21.5625Z" fill="#66FCF1"/>
</g>
<defs>
<clipPath id="clip0_66_233">
<rect width="30" height="30" fill="white"/>
</clipPath>
</defs>
</svg>
