<svg width="45" height="44" viewBox="0 0 45 44" fill="none" xmlns="http://www.w3.org/2000/svg">
<path d="M22.5 22C23.5313 22 24.4144 21.6407 25.1494 20.922C25.8844 20.2033 26.2512 19.3404 26.25 18.3333C26.25 17.325 25.8825 16.4615 25.1475 15.7428C24.4125 15.0242 23.53 14.6654 22.5 14.6667C21.4687 14.6667 20.5856 15.026 19.8506 15.7447C19.1156 16.4633 18.7488 17.3262 18.75 18.3333C18.75 19.3417 19.1175 20.2052 19.8525 20.9238C20.5875 21.6425 21.47 22.0012 22.5 22ZM22.5 35.475C26.3125 32.0528 29.1406 28.9434 30.9844 26.147C32.8281 23.3505 33.75 20.8682 33.75 18.7C33.75 15.3694 32.6637 12.6427 30.4912 10.5197C28.3187 8.39666 25.655 7.33455 22.5 7.33332C19.3438 7.33332 16.6794 8.39543 14.5069 10.5197C12.3344 12.6439 11.2488 15.3707 11.25 18.7C11.25 20.8694 12.1719 23.3524 14.0156 26.1488C15.8594 28.9453 18.6875 32.054 22.5 35.475ZM22.5 40.3333C17.4687 36.1472 13.7112 32.2593 11.2275 28.6697C8.74375 25.08 7.50125 21.7568 7.5 18.7C7.5 14.1167 9.00813 10.4653 12.0244 7.74582C15.0406 5.02638 18.5325 3.66666 22.5 3.66666C26.4687 3.66666 29.9612 5.02638 32.9775 7.74582C35.9937 10.4653 37.5012 14.1167 37.5 18.7C37.5 21.7555 36.2575 25.0788 33.7725 28.6697C31.2875 32.2605 27.53 36.1484 22.5 40.3333Z" fill="#66FCF1"/>
</svg>
