<svg width="21" height="25" viewBox="0 0 21 25" fill="none" xmlns="http://www.w3.org/2000/svg">
<path d="M10.5 12.4999C10.9813 12.4999 11.3934 12.2958 11.7364 11.8874C12.0794 11.4791 12.2506 10.9888 12.25 10.4166C12.25 9.84367 12.0785 9.35304 11.7355 8.94471C11.3925 8.53638 10.9807 8.33256 10.5 8.33325C10.0187 8.33325 9.60662 8.53742 9.26362 8.94575C8.92062 9.35409 8.74942 9.84436 8.75 10.4166C8.75 10.9895 8.9215 11.4801 9.2645 11.8885C9.6075 12.2968 10.0193 12.5006 10.5 12.4999ZM10.5 20.1562C12.2792 18.2117 13.599 16.4451 14.4594 14.8562C15.3198 13.2673 15.75 11.8569 15.75 10.6249C15.75 8.73256 15.2431 7.18325 14.2292 5.977C13.2154 4.77075 11.9723 4.16728 10.5 4.16659C9.02708 4.16659 7.78371 4.77006 6.76987 5.977C5.75604 7.18395 5.24942 8.73325 5.25 10.6249C5.25 11.8576 5.68021 13.2683 6.54062 14.8572C7.40104 16.4461 8.72083 18.2124 10.5 20.1562ZM10.5 22.9166C8.15208 20.5381 6.39858 18.3291 5.2395 16.2895C4.08042 14.2499 3.50058 12.3617 3.5 10.6249C3.5 8.02075 4.20379 5.9461 5.61138 4.40096C7.01896 2.85582 8.6485 2.08325 10.5 2.08325C12.3521 2.08325 13.9819 2.85582 15.3895 4.40096C16.7971 5.9461 17.5006 8.02075 17.5 10.6249C17.5 12.361 16.9202 14.2492 15.7605 16.2895C14.6008 18.3298 12.8473 20.5388 10.5 22.9166Z" fill="#FF0000"/>
</svg>
