<svg width="60" height="60" viewBox="0 0 60 60" fill="none" xmlns="http://www.w3.org/2000/svg">
<g clip-path="url(#clip0_66_305)">
<path d="M60.0002 24.5988C54.1039 24.6112 48.3523 23.0022 43.5578 19.9992V40.943C43.5561 44.822 42.2011 48.6081 39.6739 51.7951C37.1467 54.9821 33.5678 57.418 29.4157 58.7772C25.2636 60.1363 20.7362 60.354 16.4389 59.4009C12.1417 58.4479 8.27934 56.3696 5.3684 53.444C2.45746 50.5184 0.636654 46.8849 0.149461 43.0294C-0.337733 39.1739 0.531903 35.2801 2.64209 31.8687C4.75227 28.4574 8.00242 25.691 11.9579 23.9395C15.9135 22.188 20.3858 21.5349 24.777 22.0676V32.6016C22.7676 32.0485 20.6098 32.0652 18.6119 32.6492C16.6139 33.2332 14.878 34.3546 13.6519 35.8534C12.4258 37.3521 11.7723 39.1515 11.7847 40.9947C11.7971 42.8378 12.4748 44.6304 13.721 46.1164C14.9672 47.6024 16.7181 48.7059 18.7238 49.2692C20.7294 49.8326 22.8872 49.827 24.8891 49.2533C26.8909 48.6796 28.6343 47.567 29.8704 46.0746C31.1066 44.5822 31.7721 42.7861 31.7721 40.943V0H43.5578C43.5496 0.870867 43.633 1.74055 43.8069 2.59805C44.2164 4.51228 45.068 6.33329 46.3094 7.94969C47.5508 9.56609 49.1561 10.9439 51.027 11.9988C53.6886 13.5388 56.8093 14.3596 60.0002 14.359V24.5988Z" fill="#66FCF1"/>
</g>
<defs>
<clipPath id="clip0_66_305">
<rect width="60" height="60" fill="white"/>
</clipPath>
</defs>
</svg>
