<svg width="60" height="60" viewBox="0 0 60 60" fill="none" xmlns="http://www.w3.org/2000/svg">
<path d="M53.8324 17.7791C53.8705 18.3121 53.8705 18.8452 53.8705 19.3782C53.8705 35.6344 41.4975 54.3654 18.8832 54.3654C11.9162 54.3654 5.44418 52.3476 0 48.8452C0.989883 48.9593 1.94156 48.9974 2.96953 48.9974C8.71816 48.9974 14.0101 47.0558 18.236 43.7437C12.8299 43.6294 8.29945 40.0888 6.73852 35.2157C7.5 35.3298 8.26137 35.406 9.06094 35.406C10.165 35.406 11.2691 35.2537 12.297 34.9873C6.66246 33.8451 2.43645 28.8959 2.43645 22.9187V22.7665C4.07344 23.6802 5.97715 24.2513 7.99477 24.3273C4.68258 22.1192 2.51262 18.3502 2.51262 14.0862C2.51262 11.802 3.12164 9.70808 4.1877 7.88065C10.241 15.3426 19.34 20.2156 29.543 20.7487C29.3527 19.835 29.2384 18.8833 29.2384 17.9315C29.2384 11.1548 34.7207 5.63452 41.5354 5.63452C45.0759 5.63452 48.2739 7.11929 50.5201 9.51776C53.2992 8.9848 55.9642 7.95683 58.3247 6.54823C57.4109 9.40362 55.4693 11.8021 52.9186 13.3248C55.3932 13.0585 57.7917 12.373 59.9998 11.4214C58.3249 13.8578 56.2309 16.0278 53.8324 17.7791Z" fill="#66FCF1"/>
</svg>
