<svg width="30" height="30" viewBox="0 0 30 30" fill="none" xmlns="http://www.w3.org/2000/svg">
<path d="M0 1.40625C0 0.626953 0.562058 0 1.26069 0H3.65075C4.80638 0 5.83069 0.75 6.30871 1.875H27.898C29.2795 1.875 30.2881 3.33984 29.9256 4.82812L27.772 13.752C27.3255 15.5918 25.8284 16.875 24.1212 16.875H8.96666L9.25032 18.5449C9.36588 19.207 9.88592 19.6875 10.49 19.6875H25.634C26.3327 19.6875 26.8947 20.3145 26.8947 21.0938C26.8947 21.873 26.3327 22.5 25.634 22.5H10.49C8.6725 22.5 7.1124 21.0586 6.77621 19.0723L4.06573 3.19336C4.02896 2.9707 3.85561 2.8125 3.65075 2.8125H1.26069C0.562058 2.8125 0 2.18555 0 1.40625ZM6.72368 27.1875C6.72368 26.8182 6.7889 26.4524 6.91561 26.1112C7.04232 25.77 7.22805 25.4599 7.46218 25.1988C7.69631 24.9376 7.97427 24.7304 8.28017 24.5891C8.58608 24.4477 8.91395 24.375 9.24507 24.375C9.57618 24.375 9.90405 24.4477 10.21 24.5891C10.5159 24.7304 10.7938 24.9376 11.028 25.1988C11.2621 25.4599 11.4478 25.77 11.5745 26.1112C11.7012 26.4524 11.7664 26.8182 11.7664 27.1875C11.7664 27.5568 11.7012 27.9226 11.5745 28.2638C11.4478 28.605 11.2621 28.9151 11.028 29.1762C10.7938 29.4374 10.5159 29.6446 10.21 29.7859C9.90405 29.9273 9.57618 30 9.24507 30C8.91395 30 8.58608 29.9273 8.28017 29.7859C7.97427 29.6446 7.69631 29.4374 7.46218 29.1762C7.22805 28.9151 7.04232 28.605 6.91561 28.2638C6.7889 27.9226 6.72368 27.5568 6.72368 27.1875ZM24.3734 24.375C25.0421 24.375 25.6834 24.6713 26.1562 25.1988C26.6291 25.7262 26.8947 26.4416 26.8947 27.1875C26.8947 27.9334 26.6291 28.6488 26.1562 29.1762C25.6834 29.7037 25.0421 30 24.3734 30C23.7046 30 23.0633 29.7037 22.5905 29.1762C22.1176 28.6488 21.852 27.9334 21.852 27.1875C21.852 26.4416 22.1176 25.7262 22.5905 25.1988C23.0633 24.6713 23.7046 24.375 24.3734 24.375Z" fill="#66FCF1"/>
</svg>
